<svg id="Layer_1" data-name="Layer 1" xmlns="http://www.w3.org/2000/svg" viewBox="0 0 512 511.85"><defs><style>.cls-1{fill:#f97316;}</style></defs><path class="cls-1" d="M410.83,86.8a23.71,23.71,0,0,0-23.66,23.71V401.64c1.19,31.47,46.23,31.36,47.42,0V110.51A23.77,23.77,0,0,0,410.83,86.8ZM256,86.8a23.76,23.76,0,0,0-23.75,23.71V401.64c1.19,31.43,46.32,31.4,47.5,0V110.51A23.76,23.76,0,0,0,256,86.8Zm77.42,86.72a23.72,23.72,0,0,0-23.67,23.71V314.92c1.2,31.48,46.23,31.36,47.42,0V197.23A23.76,23.76,0,0,0,333.42,173.52Zm154.83,43.36a23.71,23.71,0,0,0-23.66,23.72v31c1.19,31.48,46.22,31.36,47.41,0v-31A23.76,23.76,0,0,0,488.25,216.88Zm-464.5,0A23.76,23.76,0,0,0,0,240.59v31c1.2,31.38,46.23,31.45,47.42,0v-31a23.72,23.72,0,0,0-23.67-23.71Zm77.42-86.72a23.76,23.76,0,0,0-23.75,23.71V358.28c1.19,31.38,46.23,31.45,47.41,0V153.87A23.71,23.71,0,0,0,101.17,130.16ZM178.59.08a23.77,23.77,0,0,0-23.76,23.71V488.36c1.2,31.38,46.23,31.45,47.42,0V23.79A23.72,23.72,0,0,0,178.59.08Z" transform="translate(0 -0.08)"/></svg>