<svg xmlns="http://www.w3.org/2000/svg" version="1.1" xmlns:xlink="http://www.w3.org/1999/xlink" xmlns:svgjs="http://svgjs.com/svgjs" width="512" height="512" x="0" y="0" viewBox="0 0 64 64" style="enable-background:new 0 0 512 512" xml:space="preserve" class=""><g><linearGradient id="a" x1="5.6" x2="58.4" y1="32" y2="32" gradientUnits="userSpaceOnUse"><stop stop-opacity="1" stop-color="#f97316" offset="0"></stop><stop stop-opacity="1" stop-color="#a855f7" offset="1"></stop></linearGradient><path fill="url(#a)" d="M58.4 10.09v34.23a10.556 10.556 0 1 1-7.54-10.14V21.69a2.043 2.043 0 0 0-2.37-2.02l-20.01 3.18a2.043 2.043 0 0 0-1.73 2.02v24.56a10.569 10.569 0 1 1-7.76-10.2V14.76a6.067 6.067 0 0 1 5.06-5.99l27.22-4.68a6.092 6.092 0 0 1 7.13 6z" data-original="url(#a)" class=""></path></g></svg>